<?xml version="1.0" encoding="UTF-8" standalone="no"?>
<!-- Uploaded to: SVG Repo, www.svgrepo.com, Generator: SVG Repo Mixer Tools -->

<svg
   width="689.83087"
   height="689.83087"
   viewBox="0 0 41.389852 41.389852"
   fill="none"
   version="1.1"
   id="svg1199"
   sodipodi:docname="help.svg"
   inkscape:version="1.2.2 (732a01da63, 2022-12-09)"
   xmlns:inkscape="http://www.inkscape.org/namespaces/inkscape"
   xmlns:sodipodi="http://sodipodi.sourceforge.net/DTD/sodipodi-0.dtd"
   xmlns="http://www.w3.org/2000/svg"
   xmlns:svg="http://www.w3.org/2000/svg">
  <defs
     id="defs1203" />
  <sodipodi:namedview
     id="namedview1201"
     pagecolor="#ffffff"
     bordercolor="#000000"
     borderopacity="0.25"
     inkscape:showpageshadow="2"
     inkscape:pageopacity="0.0"
     inkscape:pagecheckerboard="0"
     inkscape:deskcolor="#d1d1d1"
     showgrid="false"
     inkscape:zoom="0.95820588"
     inkscape:cx="-491.02182"
     inkscape:cy="203.50533"
     inkscape:window-width="2560"
     inkscape:window-height="1417"
     inkscape:window-x="1912"
     inkscape:window-y="-8"
     inkscape:window-maximized="1"
     inkscape:current-layer="svg1199" />
  <g
     id="g4952"
     transform="translate(40.242945,1.3363101)">
    <path
       d="m -19.54802,24.238617 v -4 c 3.3137,0 6,-2.6863 6,-6 0,-3.3137 -2.6863,-6 -6,-6 -3.3137,0 -6,2.6863 -6,6"
       stroke="#ffffff"
       stroke-width="4"
       stroke-linecap="round"
       stroke-linejoin="round"
       id="path1195" />
    <path
       fill-rule="evenodd"
       clip-rule="evenodd"
       d="m -19.54802,33.018617 c 1.3807,0 2.5,-1.1193 2.5,-2.5 0,-1.3807 -1.1193,-2.5 -2.5,-2.5 -1.3807,0 -2.5,1.1193 -2.5,2.5 0,1.3807 1.1193,2.5 2.5,2.5 z"
       fill="#ffffff"
       id="path1197" />
    <path
       style="opacity:0.76;fill:#37474f;fill-opacity:1;stroke:#000000;stroke-width:0.114387;stroke-opacity:0"
       d="m -21.862366,37.279313 c -1.01217,-0.158465 -2.023981,-0.37921 -2.762121,-0.602607 -6.877881,-2.081581 -11.827354,-7.937463 -12.707815,-15.035024 -0.118634,-0.956331 -0.114868,-3.408092 0.0067,-4.343121 0.952908,-7.330935 6.145243,-13.2667514 13.253932,-15.1517374 1.46563,-0.388637 2.808711,-0.551924 4.539723,-0.551924 2.123246,0 3.696506,0.24327 5.598991,0.86576 2.664603,0.871854 5.0003304,2.319262 7.0577454,4.373558 2.706411,2.702306 4.3564149,5.9027434 5.0578899,9.8105494 0.129546,0.721676 0.141236,0.954926 0.141062,2.814629 -1.8e-4,2.174296 -0.02666,2.461024 -0.367091,3.978912 -0.318198,1.418742 -0.98679,3.222933 -1.6434019,4.434706 -2.737234,5.051555 -7.4890694,8.432396 -13.1516274,9.357133 -0.895897,0.146306 -4.197132,0.178613 -5.023959,0.04917 z m 3.408739,-4.367772 c 0.496709,-0.232977 0.992309,-0.721039 1.23594,-1.217145 0.15577,-0.317191 0.167427,-0.393605 0.167427,-1.097548 0,-0.742974 -0.0036,-0.763338 -0.202054,-1.129113 -0.267606,-0.493338 -0.676651,-0.892045 -1.15823,-1.128957 -0.378597,-0.18625 -0.421028,-0.19338 -1.150704,-0.19338 -0.71602,0 -0.775615,0.0095 -1.085521,0.172609 -0.455277,0.239654 -0.921081,0.699432 -1.160546,1.145532 -0.183307,0.341486 -0.204428,0.433937 -0.225997,0.989275 -0.03007,0.774205 0.07164,1.149989 0.446044,1.648064 0.565787,0.752662 1.190118,1.049771 2.146087,1.021286 0.499873,-0.01489 0.62895,-0.04242 0.987554,-0.210623 z m -0.167987,-6.958677 c 0.323986,-0.168718 0.702367,-0.542349 0.912682,-0.901226 0.170025,-0.290125 0.170601,-0.294814 0.208801,-1.701754 0.02107,-0.775956 0.04919,-1.42029 0.0625,-1.431854 0.01331,-0.01156 0.214861,-0.08207 0.4479,-0.156671 0.658314,-0.210751 1.587604,-0.693067 2.150817,-1.116309 0.658456,-0.494814 1.579895,-1.446692 1.991896,-2.057698 0.896935,-1.330174 1.334506,-2.790777 1.334506,-4.454564 0,-3.774075 -2.454642,-6.9219884 -6.115002,-7.8420784 -0.868845,-0.218399 -2.301697,-0.271697 -3.212027,-0.119479 -2.910231,0.486626 -5.376959,2.566633 -6.295608,5.3086154 -0.398246,1.188686 -0.534293,2.599186 -0.320228,3.320023 0.129754,0.436931 0.757064,1.079502 1.200262,1.229463 0.378389,0.128033 1.021824,0.129491 1.412854,0.0032 0.816663,-0.263753 1.219469,-0.857947 1.375185,-2.028587 0.0515,-0.38713 0.136624,-0.850181 0.189175,-1.029004 0.288066,-0.980244 1.045174,-1.883701 1.960302,-2.339224 0.738196,-0.367452 1.156229,-0.457511 1.966061,-0.423557 0.565543,0.02371 0.741833,0.05726 1.159187,0.220575 1.181778,0.462447 2.009114,1.33421 2.420033,2.549987 0.177736,0.525862 0.161393,1.762736 -0.03105,2.350219 -0.35402,1.080726 -1.38527,2.130683 -2.443997,2.488332 -0.207165,0.06998 -0.717142,0.16854 -1.133283,0.219016 -0.539573,0.06545 -0.845897,0.13492 -1.067835,0.242176 -0.350295,0.16929 -0.731004,0.551394 -0.940476,0.943925 l -0.140491,0.263266 v 2.57251 c 0,2.848618 -0.0034,2.819862 0.393544,3.322042 0.242337,0.30658 0.529538,0.51488 0.900717,0.653268 0.340417,0.126919 1.30445,0.07637 1.613578,-0.08462 z"
       id="path2819" />
    <circle
       style="fill:none;fill-opacity:1;stroke:#000000;stroke-width:1.4994;stroke-dasharray:none;stroke-opacity:0.760784"
       id="path3565"
       cx="-19.548019"
       cy="19.358616"
       r="19.945227" />
    <path
       style="fill:#37474f;fill-opacity:1;stroke:none;stroke-width:2.13919;stroke-opacity:0.760784"
       d="m -21.742865,37.145433 c -2.268724,-0.356728 -3.924332,-0.874701 -5.788259,-1.810913 -5.087581,-2.555382 -8.657361,-7.385612 -9.627483,-13.02684 -0.241766,-1.405865 -0.241878,-4.417465 -2.4e-4,-5.820925 0.990084,-5.749945 4.60822,-10.5972804 9.81338,-13.1473064 4.159595,-2.0377996 8.981983,-2.37136552 13.392345,-0.9263522 5.3352284,1.748037 9.6735404,6.0975076 11.4276837,11.4570776 0.1551234,0.473959 0.3914118,1.323993 0.5250859,1.888965 0.2380793,1.006243 0.2430681,1.078795 0.2442674,3.552476 0.00112,2.3123 -0.015453,2.604661 -0.1965392,3.466874 -0.2703349,1.287164 -0.9616159,3.312541 -1.5252457,4.468805 -1.4076519,2.887741 -3.8589187,5.589293 -6.6400581,7.318036 -2.08666,1.297058 -4.856503,2.296612 -7.065424,2.549702 -0.706392,0.08094 -4.094477,0.103527 -4.559536,0.0304 z m 3.454788,-4.378082 c 0.44848,-0.242397 0.904988,-0.720513 1.11943,-1.172416 0.09344,-0.196902 0.133883,-0.538236 0.133883,-1.129859 0,-0.787471 -0.01744,-0.874772 -0.245299,-1.22829 -0.281005,-0.435965 -0.608764,-0.755772 -1.038728,-1.013532 -0.252368,-0.151292 -0.438488,-0.179663 -1.180436,-0.179932 -1.022308,-3.6e-4 -1.302103,0.104161 -1.870522,0.698831 -0.483811,0.506156 -0.648604,0.868911 -0.696064,1.532231 -0.09621,1.344659 0.709789,2.478864 1.949383,2.743176 0.523474,0.111619 1.374343,-0.0048 1.828353,-0.250209 z m -0.127103,-7.017227 c 0.205931,-0.127807 0.493143,-0.397542 0.638249,-0.599411 0.260696,-0.362678 0.26455,-0.383507 0.324729,-1.754837 0.0335,-0.763292 0.06408,-1.429857 0.06797,-1.481255 0.0039,-0.0514 0.170778,-0.142211 0.370872,-0.201804 0.422166,-0.12573 1.597411,-0.698722 1.982546,-0.966591 1.568623,-1.091008 2.841106,-2.872188 3.318178,-4.644679 0.151058,-0.561231 0.18518,-0.931983 0.189081,-2.054444 0.0055,-1.574523 -0.140909,-2.295574 -0.715518,-3.52451 -0.972694,-2.0803332 -2.732484,-3.5783082 -5.028367,-4.2802638 -0.691661,-0.2114724 -0.871466,-0.2300112 -2.249773,-0.2319666 -1.390697,-0.00197 -1.551985,0.014522 -2.251036,0.2302074 -2.730512,0.8424744 -4.684815,2.7954294 -5.505835,5.502039 -0.198526,0.654468 -0.232739,0.924734 -0.239274,1.890161 -0.0076,1.120986 -0.0064,1.128308 0.25157,1.495641 0.405011,0.576807 0.884754,0.869573 1.497572,0.9139 0.66545,0.04813 1.190301,-0.102572 1.610844,-0.462542 0.405699,-0.347263 0.571523,-0.736568 0.747095,-1.753955 0.16235,-0.940765 0.305471,-1.360569 0.643377,-1.88715 0.935773,-1.458274 2.793559,-2.1424352 4.372901,-1.610393 1.864541,0.628118 2.939918,2.33435 2.666672,4.23104 -0.123429,0.856761 -0.268594,1.887504 -0.906092,2.527485 -0.705788,0.708536 -0.982926,0.772577 -2.182205,0.973568 -1.078675,0.180777 -1.940646,0.167788 -2.281563,0.572945 -0.501593,0.596109 -0.495477,0.550595 -0.464324,3.455146 l 0.02865,2.671683 0.232036,0.350478 c 0.278963,0.42136 0.688005,0.745617 1.094792,0.86787 0.495348,0.148867 1.356328,0.03883 1.786852,-0.228362 z"
       id="path4525"
       sodipodi:nodetypes="csscssssssssscccsssscssscssscssscsssssccsssssssssscssss" />
  </g>
</svg>
