<?xml version="1.0" encoding="UTF-8" standalone="no"?>
<!-- Created with Inkscape (http://www.inkscape.org/) -->

<svg
   width="135.11827mm"
   height="67.596931mm"
   viewBox="0 0 135.11827 67.596931"
   version="1.1"
   id="svg5"
   inkscape:version="1.2.2 (732a01da63, 2022-12-09)"
   sodipodi:docname="landing_image.svg"
   xmlns:inkscape="http://www.inkscape.org/namespaces/inkscape"
   xmlns:sodipodi="http://sodipodi.sourceforge.net/DTD/sodipodi-0.dtd"
   xmlns="http://www.w3.org/2000/svg"
   xmlns:svg="http://www.w3.org/2000/svg">
  <sodipodi:namedview
     id="namedview7"
     pagecolor="#ffffff"
     bordercolor="#000000"
     borderopacity="0.25"
     inkscape:showpageshadow="2"
     inkscape:pageopacity="0.0"
     inkscape:pagecheckerboard="0"
     inkscape:deskcolor="#d1d1d1"
     inkscape:document-units="mm"
     showgrid="false"
     inkscape:zoom="2.9077441"
     inkscape:cx="231.27895"
     inkscape:cy="165.42033"
     inkscape:window-width="2560"
     inkscape:window-height="1417"
     inkscape:window-x="1912"
     inkscape:window-y="-8"
     inkscape:window-maximized="1"
     inkscape:current-layer="layer1" />
  <defs
     id="defs2">
    <rect
       x="501.07574"
       y="161.63733"
       width="182.27188"
       height="33.703102"
       id="rect817" />
    <clipPath
       id="clip1">
      <rect
         x="432"
         y="298"
         width="22"
         height="19"
         id="rect135" />
    </clipPath>
    <clipPath
       id="clip2">
      <rect
         x="432"
         y="298"
         width="22"
         height="19"
         id="rect138" />
    </clipPath>
    <clipPath
       id="clip3">
      <rect
         x="432"
         y="298"
         width="22"
         height="19"
         id="rect141" />
    </clipPath>
    <clipPath
       id="clip4">
      <rect
         x="427"
         y="253"
         width="21"
         height="19"
         id="rect144" />
    </clipPath>
    <clipPath
       id="clip5">
      <rect
         x="427"
         y="253"
         width="21"
         height="19"
         id="rect147" />
    </clipPath>
    <clipPath
       id="clip6">
      <rect
         x="427"
         y="253"
         width="21"
         height="19"
         id="rect150" />
    </clipPath>
    <clipPath
       id="clip7">
      <rect
         x="451"
         y="262"
         width="18"
         height="16"
         id="rect153" />
    </clipPath>
    <clipPath
       id="clip8">
      <rect
         x="451"
         y="262"
         width="18"
         height="16"
         id="rect156" />
    </clipPath>
    <clipPath
       id="clip9">
      <rect
         x="451"
         y="262"
         width="18"
         height="16"
         id="rect159" />
    </clipPath>
    <clipPath
       id="clip10">
      <rect
         x="351"
         y="159"
         width="43"
         height="40"
         id="rect162" />
    </clipPath>
    <clipPath
       id="clip11">
      <rect
         x="351"
         y="159"
         width="43"
         height="40"
         id="rect165" />
    </clipPath>
    <clipPath
       id="clip12">
      <rect
         x="351"
         y="159"
         width="43"
         height="40"
         id="rect168" />
    </clipPath>
    <clipPath
       id="clip13">
      <rect
         x="369"
         y="164"
         width="14"
         height="13"
         id="rect171" />
    </clipPath>
    <clipPath
       id="clip14">
      <rect
         x="369"
         y="164"
         width="14"
         height="13"
         id="rect174" />
    </clipPath>
    <clipPath
       id="clip15">
      <rect
         x="369"
         y="164"
         width="14"
         height="13"
         id="rect177" />
    </clipPath>
    <clipPath
       clipPathUnits="userSpaceOnUse"
       id="clipPath625">
      <g
         id="g629">
        <rect
           x="34.802498"
           y="42.752884"
           width="137.31874"
           height="67.204163"
           id="rect627"
           style="stroke-width:0.264583" />
      </g>
    </clipPath>
    <clipPath
       clipPathUnits="userSpaceOnUse"
       id="clipPath631">
      <g
         id="g635">
        <rect
           x="34.802498"
           y="42.752884"
           width="137.31874"
           height="67.204163"
           id="rect633"
           style="stroke-width:0.264583" />
      </g>
    </clipPath>
    <clipPath
       clipPathUnits="userSpaceOnUse"
       id="clipPath637">
      <g
         id="g641">
        <rect
           x="34.802498"
           y="42.752884"
           width="137.31874"
           height="67.204163"
           id="rect639"
           style="stroke-width:0.264583" />
      </g>
    </clipPath>
    <clipPath
       clipPathUnits="userSpaceOnUse"
       id="clipPath643">
      <g
         id="g647">
        <rect
           x="34.802498"
           y="42.752884"
           width="137.31874"
           height="67.204163"
           id="rect645"
           style="stroke-width:0.264583" />
      </g>
    </clipPath>
    <clipPath
       clipPathUnits="userSpaceOnUse"
       id="clipPath649">
      <g
         id="g653">
        <rect
           x="34.802498"
           y="42.752884"
           width="137.31874"
           height="67.204163"
           id="rect651"
           style="stroke-width:0.264583" />
      </g>
    </clipPath>
    <clipPath
       clipPathUnits="userSpaceOnUse"
       id="clipPath655">
      <g
         id="g659">
        <rect
           x="34.802498"
           y="42.752884"
           width="137.31874"
           height="67.204163"
           id="rect657"
           style="stroke-width:0.264583" />
      </g>
    </clipPath>
    <clipPath
       clipPathUnits="userSpaceOnUse"
       id="clipPath661">
      <g
         id="g665">
        <rect
           x="34.802498"
           y="42.752884"
           width="137.31874"
           height="67.204163"
           id="rect663"
           style="stroke-width:0.264583" />
      </g>
    </clipPath>
    <clipPath
       clipPathUnits="userSpaceOnUse"
       id="clipPath667">
      <g
         id="g671">
        <rect
           x="34.802498"
           y="42.752884"
           width="137.31874"
           height="67.204163"
           id="rect669"
           style="stroke-width:0.264583" />
      </g>
    </clipPath>
    <clipPath
       clipPathUnits="userSpaceOnUse"
       id="clipPath673">
      <g
         id="g677">
        <rect
           x="34.802498"
           y="42.752884"
           width="137.31874"
           height="67.204163"
           id="rect675"
           style="stroke-width:0.264583" />
      </g>
    </clipPath>
    <clipPath
       clipPathUnits="userSpaceOnUse"
       id="clipPath679">
      <g
         id="g683">
        <rect
           x="34.802498"
           y="42.752884"
           width="137.31874"
           height="67.204163"
           id="rect681"
           style="stroke-width:0.264583" />
      </g>
    </clipPath>
    <clipPath
       clipPathUnits="userSpaceOnUse"
       id="clipPath685">
      <g
         id="g689">
        <rect
           x="34.802498"
           y="42.752884"
           width="137.31874"
           height="67.204163"
           id="rect687"
           style="stroke-width:0.264583" />
      </g>
    </clipPath>
    <clipPath
       clipPathUnits="userSpaceOnUse"
       id="clipPath691">
      <g
         id="g695">
        <rect
           x="34.802498"
           y="42.752884"
           width="137.31874"
           height="67.204163"
           id="rect693"
           style="stroke-width:0.264583" />
      </g>
    </clipPath>
    <clipPath
       clipPathUnits="userSpaceOnUse"
       id="clipPath697">
      <g
         id="g701"
         transform="matrix(3.7795276,0,0,3.7795276,-28.537003,-37.585704)">
        <rect
           x="34.802498"
           y="42.752884"
           width="137.31874"
           height="67.204163"
           id="rect699"
           style="stroke-width:0.264583" />
      </g>
    </clipPath>
    <clipPath
       clipPathUnits="userSpaceOnUse"
       id="clipPath703">
      <g
         id="g707"
         transform="matrix(3.7795276,0,0,3.7795276,-28.537003,-37.585704)">
        <rect
           x="34.802498"
           y="42.752884"
           width="137.31874"
           height="67.204163"
           id="rect705"
           style="stroke-width:0.264583" />
      </g>
    </clipPath>
    <clipPath
       clipPathUnits="userSpaceOnUse"
       id="clipPath709">
      <g
         id="g713">
        <rect
           x="34.802498"
           y="42.752884"
           width="137.31874"
           height="67.204163"
           id="rect711"
           style="stroke-width:0.264583" />
      </g>
    </clipPath>
    <clipPath
       clipPathUnits="userSpaceOnUse"
       id="clipPath715">
      <g
         id="g719"
         transform="matrix(3.7795276,0,0,3.7795276,-28.537003,-37.585704)">
        <rect
           x="34.802498"
           y="42.752884"
           width="137.31874"
           height="67.204163"
           id="rect717"
           style="stroke-width:0.264583" />
      </g>
    </clipPath>
    <clipPath
       clipPathUnits="userSpaceOnUse"
       id="clipPath721">
      <g
         id="g725"
         transform="matrix(3.7795276,0,0,3.7795276,-28.537003,-37.585704)">
        <rect
           x="34.802498"
           y="42.752884"
           width="137.31874"
           height="67.204163"
           id="rect723"
           style="stroke-width:0.264583" />
      </g>
    </clipPath>
    <clipPath
       clipPathUnits="userSpaceOnUse"
       id="clipPath727">
      <g
         id="g731"
         transform="matrix(3.7795276,0,0,3.7795276,-28.537003,-37.585704)">
        <rect
           x="34.802498"
           y="42.752884"
           width="137.31874"
           height="67.204163"
           id="rect729"
           style="stroke-width:0.264583" />
      </g>
    </clipPath>
    <clipPath
       clipPathUnits="userSpaceOnUse"
       id="clipPath733">
      <g
         id="g737">
        <rect
           x="34.802498"
           y="42.752884"
           width="137.31874"
           height="67.204163"
           id="rect735"
           style="stroke-width:0.264583" />
      </g>
    </clipPath>
    <clipPath
       clipPathUnits="userSpaceOnUse"
       id="clipPath739">
      <g
         id="g743">
        <rect
           x="34.802498"
           y="42.752884"
           width="137.31874"
           height="67.204163"
           id="rect741"
           style="stroke-width:0.264583" />
      </g>
    </clipPath>
    <clipPath
       clipPathUnits="userSpaceOnUse"
       id="clipPath745">
      <g
         id="g749">
        <rect
           x="34.802498"
           y="42.752884"
           width="137.31874"
           height="67.204163"
           id="rect747"
           style="stroke-width:0.264583" />
      </g>
    </clipPath>
    <clipPath
       clipPathUnits="userSpaceOnUse"
       id="clipPath751">
      <g
         id="g755">
        <rect
           x="34.802498"
           y="42.752884"
           width="137.31874"
           height="67.204163"
           id="rect753"
           style="stroke-width:0.264583" />
      </g>
    </clipPath>
    <clipPath
       clipPathUnits="userSpaceOnUse"
       id="clipPath757">
      <g
         id="g761">
        <rect
           x="34.802498"
           y="42.752884"
           width="137.31874"
           height="67.204163"
           id="rect759"
           style="stroke-width:0.264583" />
      </g>
    </clipPath>
    <rect
       x="501.07574"
       y="161.63733"
       width="138.59541"
       height="18.571096"
       id="rect1057" />
    <rect
       x="501.07574"
       y="161.63733"
       width="157.51042"
       height="26.1371"
       id="rect3143" />
    <rect
       x="501.07574"
       y="161.63733"
       width="94.231125"
       height="18.227188"
       id="rect3887" />
  </defs>
  <g
     inkscape:label="Layer 1"
     inkscape:groupmode="layer"
     id="layer1"
     transform="translate(-34.565371,-42.642733)">
    <path
       d="m 73.034789,82.1758 c 0,-14.831748 13.030465,-26.855208 29.104171,-26.855208 16.0737,0 29.10416,12.02346 29.10416,26.855208 0,14.831748 -13.03046,26.85521 -29.10416,26.85521 -16.073706,0 -29.104171,-12.023462 -29.104171,-26.85521 z"
       stroke="#37474f"
       stroke-width="0.352777"
       stroke-miterlimit="8"
       fill="#37474f"
       fill-rule="evenodd"
       id="path208"
       clip-path="url(#clipPath757)"
       style="opacity:1" />
    <path
       d="m 84.411873,82.1758 c 0,-9.132887 7.995972,-16.536458 17.859377,-16.536458 9.8634,0 17.85937,7.403571 17.85937,16.536458 0,9.132887 -7.99597,16.536458 -17.85937,16.536458 -9.863405,0 -17.859377,-7.403571 -17.859377,-16.536458 z"
       stroke="#ffffff"
       stroke-width="0.352777"
       stroke-miterlimit="8"
       fill="#ffffff"
       fill-rule="evenodd"
       id="path210"
       clip-path="url(#clipPath751)"
       style="opacity:1" />
    <path
       d="m 88.909789,82.1758 c 0,-6.794765 6.041496,-12.303125 13.493751,-12.303125 7.45252,0 13.49375,5.50836 13.49375,12.303125 0,6.794764 -6.04123,12.303125 -13.49375,12.303125 -7.452255,0 -13.493751,-5.508361 -13.493751,-12.303125 z"
       stroke="#e7e1df"
       stroke-width="0.352777"
       stroke-miterlimit="8"
       fill="#e7e1df"
       fill-rule="evenodd"
       id="path212"
       clip-path="url(#clipPath745)"
       style="opacity:1" />
    <path
       d="m 93.407706,82.1758 c 0,-4.602956 4.027487,-8.334375 8.995834,-8.334375 4.96834,0 8.99583,3.731419 8.99583,8.334375 0,4.602956 -4.02749,8.334375 -8.99583,8.334375 -4.968347,0 -8.995834,-3.731419 -8.995834,-8.334375 z"
       stroke="#e7e1df"
       stroke-width="0.352777"
       stroke-miterlimit="8"
       fill="#ffffff"
       fill-rule="evenodd"
       id="path214"
       clip-path="url(#clipPath739)"
       style="opacity:1" />
    <path
       d="m 99.399195,90.774758 -4.139459,7.144491"
       stroke="#e7e1df"
       stroke-width="0.79375"
       stroke-miterlimit="8"
       fill="none"
       fill-rule="evenodd"
       id="path216"
       clip-path="url(#clipPath733)"
       style="opacity:1" />
    <g
       clip-path="url(#clipPath727)"
       id="g224"
       transform="matrix(0.26458333,0,0,0.26458333,7.5504152,9.9445508)"
       style="opacity:1">
      <g
         clip-path="url(#clip2)"
         id="g222">
        <g
           clip-path="url(#clip3)"
           id="g220">
          <path
             d="M 16.2723,6.48715 C 16.0047,5.66008 15.4143,4.97624 14.6351,4.59095 14.6344,4.59062 14.634,4.58987 14.634,4.58909 14.6416,4.51179 14.6459,4.43345 14.6459,4.35417 14.647,3.04352 13.5853,1.98018 12.2747,1.97912 11.8648,1.97879 11.4618,2.08464 11.105,2.28633 10.4022,1.18123 8.93665,0.855073 7.83154,1.55784 7.31931,1.88358 6.95151,2.39337 6.8039,2.98217 5.66453,2.22953 4.13076,2.54303 3.37812,3.6824 2.82031,4.52683 2.83343,5.62594 3.41125,6.45681 1.83938,6.92085 0.941304,8.5713 1.40535,10.1432 1.86939,11.715 3.51983,12.6131 5.0917,12.1491 5.19913,12.1173 5.30466,12.0796 5.40782,12.0359 l 0.56582,0.4419 c 0.35981,0.2616 0.70486,0.5429 1.03356,0.8426 l 0.18361,0.1616 c 0.58625,0.5127 0.92292,1.2533 0.92377,2.032 v 1.5068 c 0,0.328 -0.26582,0.5938 -0.59375,0.5938 H 7.13561 c -0.09943,-0.0022 -0.18618,0.0671 -0.20583,0.1647 -0.01829,0.1078 0.0543,0.21 0.16215,0.2283 0.01092,0.0019 0.02199,0.0028 0.03307,0.0028 h 3.7498 c 0.0994,0.0022 0.1862,-0.0671 0.2058,-0.1646 0.0183,-0.1079 -0.0543,-0.2101 -0.1621,-0.2284 -0.0109,-0.0019 -0.022,-0.0028 -0.0331,-0.0028 h -0.3958 c -0.3279,0 -0.59377,-0.2658 -0.59377,-0.5938 V 15.325 c -9.3e-4,-0.797 0.45247,-1.5248 1.16827,-1.8753 0.9948,-0.4948 2.3036,-1.3006 2.9925,-2.0788 l 0.4339,-0.4861 c 1.2016,0.5236 2.6001,-0.0261 3.1237,-1.22775 C 18.1378,8.45542 17.5881,7.05688 16.3865,6.53331 16.3488,6.51692 16.3108,6.5015 16.2724,6.48707 Z m -2.5116,4.62075 c -0.6525,0.737 -1.9554,1.5312 -2.8729,1.9874 -0.8506,0.417 -1.38922,1.2823 -1.3878,2.2297 v 1.6958 c 7.5e-4,0.2149 0.07208,0.4235 0.20298,0.5938 H 8.30743 C 8.43834,17.4443 8.50966,17.2357 8.51042,17.0208 V 15.514 C 8.50957,14.6212 8.12373,13.7722 7.45174,13.1844 L 7.26898,13.0236 C 6.93259,12.7167 6.57936,12.4288 6.21098,12.1611 L 5.79575,11.8367 c 0.14066,-0.0854 0.27398,-0.1823 0.39863,-0.2897 0.64918,0.3868 1.24608,0.8553 1.77612,1.3939 l 0.342,0.3634 v -0.4991 c 0.00471,-0.663 -0.11376,-1.3211 -0.34938,-1.9408 0.11596,0.0137 0.23261,0.0208 0.34938,0.021 0.09207,0 0.18278,-0.0054 0.27275,-0.0134 0.13769,0.4172 0.23245,0.8474 0.28282,1.2838 l 0.10989,0.917 0.27552,-0.8815 c 0.20037,-0.6341 0.45999,-1.248 0.77542,-1.8334 0.3014,-0.2047 0.5642,-0.46094 0.7765,-0.75696 0.0761,0.08568 0.1567,0.16728 0.2415,0.24444 -0.634,0.88272 -1.06608,2.09592 -1.33972,2.95942 l -0.18662,0.5886 0.49404,-0.3705 c 0.5549,-0.373 1.1407,-0.6978 1.751,-0.9708 0.6651,-0.307 1.24,-0.78 1.6694,-1.3736 0.187,-0.0141 0.3724,-0.0442 0.5543,-0.0897 l 0.0016,3e-4 c 0.0461,0.0356 0.0939,0.069 0.1425,0.1012 z M 6.92924,10.5836 c 0.00762,-0.0167 0.0117,-0.0262 0.0117,-0.0262 0,0 0.09698,0.0445 0.11247,0.0516 0.13696,0.0618 0.27824,0.1135 0.42269,0.1548 0.00974,0.0028 0.01429,0.0036 0.01429,0.0036 0.22436,0.4874 0.36128,1.0105 0.40451,1.5454 C 7.45554,11.9216 6.98302,11.5694 6.48266,11.2601 6.6616,11.0559 6.81184,10.8283 6.92924,10.5836 Z m 2.052,0.227 C 9.13241,10.7772 9.28081,10.7322 9.42511,10.676 9.32073,10.8967 9.22171,11.1231 9.13152,11.3514 9.08907,11.1636 9.03737,10.9848 8.98124,10.8106 Z m 3.95496,-0.1381 c -0.3686,0.4351 -0.8277,0.7847 -1.3451,1.0244 -0.395,0.1905 -0.8939,0.4314 -1.3293,0.6901 0.2584,-0.8113 0.6261,-1.5837 1.093,-2.2957 0.4654,0.3321 1.0116,0.5329 1.5814,0.5812 z m 2.7712,-0.0028 C 15.1825,10.7423 14.6505,10.6 14.2319,10.275 l -0.1509,-0.1164 -0.0017,-3e-4 -0.1848,0.0461 C 12.8747,10.4657 11.7947,10.1308 11.1017,9.33846 L 11.0364,9.26482 11.1272,9.1412 C 11.1878,9.06235 11.183,8.95138 11.1159,8.87797 11.0399,8.79949 10.9146,8.79755 10.8361,8.87363 c -0.008,0.0077 -0.0152,0.01605 -0.0218,0.02496 l -0.2208,0.30574 c 0,0 -0.0974,0.14525 -0.1096,0.16564 0,0 -0.0092,0.01284 -0.0138,0.01904 -0.50284,0.68959 -1.30414,1.09839 -2.1576,1.10059 -0.41462,2e-4 -0.82343,-0.0972 -1.19344,-0.2843 0,0 -0.11792,-0.0491 -0.23526,-0.1088 C 6.823,10.0656 6.75496,10.0251 6.75496,10.0251 L 6.63818,9.95477 C 6.55413,9.90159 6.44405,9.91634 6.37693,9.98975 c -0.0713,0.08295 -0.06186,0.20805 0.0211,0.27935 0.00843,0.0072 0.01746,0.0138 0.02698,0.0195 l 0.16104,0.097 -0.00267,0.0057 C 5.98175,11.6777 4.45115,12.2329 3.16471,11.6312 1.87825,11.0296 1.32309,9.49901 1.92472,8.21255 2.23634,7.54623 2.81839,7.04526 3.52369,6.83634 L 3.67468,6.79159 3.90992,7.05397 C 3.98004,7.1322 4.09909,7.14202 4.18107,7.07631 4.26691,7.00035 4.27492,6.86917 4.19894,6.78334 4.19787,6.78211 4.19676,6.7809 4.19566,6.77969 L 3.8493,6.3934 3.76438,6.27139 C 3.54186,5.95983 3.40611,5.59473 3.37106,5.21348 3.28045,4.0677 4.13583,3.06541 5.2816,2.97481 5.45589,2.96101 5.63122,2.96924 5.80345,2.99931 6.09389,3.05243 6.37007,3.16548 6.61437,3.33129 L 6.72521,3.40452 6.68853,3.75448 C 6.67579,3.86308 6.75272,3.96174 6.86116,3.97581 6.86915,3.9767 6.87719,3.97716 6.88524,3.9772 6.98644,3.97706 7.07123,3.9006 7.0818,3.79996 L 7.13612,3.28245 7.17616,3.12342 C 7.37527,2.29524 8.07385,1.68187 8.92082,1.59155 9.65932,1.52214 10.3743,1.8729 10.7715,2.49941 l 0.0025,0.00396 -0.2656,0.16486 c -0.0899,0.05322 -0.1256,0.16544 -0.083,0.26086 0.048,0.09822 0.1665,0.13901 0.2647,0.09106 0.006,-0.00293 0.0119,-0.00618 0.0176,-0.00972 l 0.479,-0.31007 c 0.0192,-0.01198 0.0941,-0.0589 0.0941,-0.0589 0.9421,-0.54928 2.1512,-0.23081 2.7005,0.71133 0.1771,0.3039 0.2699,0.6496 0.2687,1.00138 0,0.06367 -0.0034,0.13005 -0.0099,0.1973 L 14.2133,4.8224 c 0,8.3e-4 4e-4,0.0016 0.0011,0.00198 l 0.244,0.12073 c 0.6109,0.30382 1.0919,0.81739 1.3552,1.44677 L 15.6817,6.35871 c -0.0959,-0.02645 -0.197,0.01963 -0.24,0.10939 -0.0441,0.10002 0.0013,0.21683 0.1013,0.26093 0.0102,0.00449 0.0208,0.00813 0.0316,0.01084 l 0.6925,0.17417 c 0.9918,0.45802 1.4246,1.63339 0.9666,2.62527 -0.2828,0.61239 -0.8581,1.03839 -1.5263,1.13039 z"
             fill="#e7e1df"
             transform="matrix(1.15789,0,0,1,432,298)"
             id="path218" />
        </g>
      </g>
    </g>
    <g
       clip-path="url(#clipPath721)"
       id="g232"
       transform="matrix(0.26458333,0,0,0.26458333,7.5504152,9.9445508)"
       style="opacity:1">
      <g
         clip-path="url(#clip5)"
         id="g230">
        <g
           clip-path="url(#clip6)"
           id="g228">
          <path
             d="m 16.8118,8.14249 -2.2253,0.6274 c -0.1673,0.0471 -0.344,0.04868 -0.5121,0.00455 L 10.5816,7.85729 C 10.4854,7.83196 10.3831,7.84443 10.2958,7.89213 L 8.91615,8.64421 V 8.01365 L 10.2818,6.64802 11.1779,5.93097 C 11.2273,5.89162 11.2926,5.8785 11.3533,5.89574 l 2.5553,0.73011 c 0.0497,0.01425 0.103,0.00814 0.1482,-0.01702 l 1.3908,-0.77187 c 0.0235,-0.0131 0.0319,-0.04277 0.0188,-0.06624 -0.0105,-0.01877 -0.032,-0.02844 -0.053,-0.02381 l -1.3682,0.304 C 14.0068,6.05936 13.9668,6.05613 13.9304,6.0416 L 12.0357,5.28438 12.6206,3.72459 14.707,2.39697 C 14.7448,2.37286 14.7731,2.33654 14.7873,2.29405 L 15.0902,1.38542 C 15.0988,1.35996 15.0852,1.3323 15.0597,1.32364 15.0421,1.31763 15.0225,1.32226 15.0094,1.33554 L 14.3761,1.96888 12.4262,3.13876 11.7238,2.6125 C 11.6747,2.57569 11.6458,2.5179 11.6458,2.45654 V 1.74048 c -10e-5,-0.027 -0.022,-0.04882 -0.049,-0.04873 -0.0163,5e-5 -0.0314,0.00815 -0.0404,0.02161 l -0.6019,0.9029 c -0.0515,0.07735 -0.0413,0.18026 0.0243,0.24601 l 0.862,0.86193 -0.7602,1.1402 c -0.0131,0.01965 -0.0297,0.03675 -0.0489,0.05046 l -0.2375,0.16942 c -0.071,0.05067 -0.167,0.04808 -0.2351,-0.00633 L 9.18333,3.97813 C 9.1372,3.94108 9.11034,3.8851 9.1103,3.82593 V 2.76114 C 9.11005,2.73414 9.08796,2.71245 9.06096,2.71271 9.04275,2.71286 9.02615,2.72314 9.01787,2.73936 L 8.39325,3.98881 C 8.35626,4.06414 8.37156,4.15467 8.43125,4.21365 L 9.92414,5.70653 8.42749,6.77528 C 8.36875,6.8173 8.29156,6.82334 8.227,6.79092 L 6.38202,5.86863 V 3.44731 C 6.38218,3.37721 6.41996,3.31261 6.48098,3.27809 L 7.48679,2.70414 C 7.51019,2.69089 7.51844,2.66119 7.5052,2.63779 7.49477,2.61937 7.47367,2.60979 7.45295,2.61408 L 5.94166,2.9163 C 5.85649,2.93342 5.79286,3.00471 5.7855,3.09126 L 5.60104,5.28438 4.37515,4.05868 C 4.28393,3.96738 4.17143,3.90019 4.04779,3.86314 L 2.54897,3.41347 C 2.52322,3.40571 2.49607,3.4203 2.48831,3.44605 2.48243,3.46558 2.48934,3.4867 2.50563,3.49897 l 1.34048,1.00561 1.55998,2.14463 2.0239,1.28725 c 0.07214,0.0458 0.10594,0.13332 0.08332,0.21573 L 7.07315,9.7662 5.45439,8.19989 C 5.38994,8.1377 5.30611,8.09954 5.21689,8.09182 L 4.31063,8.01088 C 4.19777,8.00076 4.08753,7.97109 3.98485,7.9232 L 2.3275,7.14915 C 2.30326,7.13753 2.27418,7.14778 2.26256,7.17202 2.25372,7.19049 2.25736,7.2125 2.27169,7.22713 L 3.38932,8.39167 2.30929,9.00145 C 2.2859,9.01473 2.2777,9.04444 2.29098,9.06783 2.29888,9.08174 2.31313,9.09089 2.32908,9.09229 L 2.98221,9.15701 C 3.03212,9.16198 3.08253,9.15719 3.13065,9.14296 L 4.57168,8.71863 C 4.64152,8.69816 4.71697,8.71821 4.76742,8.77068 L 6.232,10.2946 5.48546,10.5707 4.17466,11.0655 c -0.02518,0.0094 -0.03796,0.0375 -0.02852,0.0627 0.00746,0.02 0.02703,0.0327 0.04831,0.0315 l 2.01756,-0.0871 1.36444,0.3992 c 0.14086,0.0416 0.26095,0.1345 0.33646,0.2605 l 0.22523,0.376 0.53437,1.601 c 0.03361,0.1006 0.03921,0.2084 0.01623,0.3119 L 8.37722,15.4233 C 8.34912,15.5495 8.28,15.6628 8.18069,15.7457 l -0.97593,0.813 C 7.17763,16.5815 7.14891,16.6023 7.11887,16.621 l -1.30626,0.817 c -0.02291,0.0141 -0.0301,0.0441 -0.01603,0.067 0.01043,0.017 0.03021,0.0259 0.04988,0.0225 L 7.81692,17.199 c 0.07782,-0.0132 0.15592,0.0218 0.19791,0.0886 l 0.25809,0.4182 c 0.02866,0.0457 0.08888,0.0594 0.13452,0.0308 0.00303,-0.0019 0.00596,-0.004 0.00877,-0.0062 l 0.58148,-0.4626 c 0.06719,-0.0535 0.16148,-0.0567 0.23215,-0.0079 l 0.77466,0.5344 c 0.0443,0.0306 0.1051,0.0195 0.1357,-0.0248 2e-4,-3e-4 5e-4,-6e-4 7e-4,-9e-4 l 0.4476,-0.6629 c 0.0489,-0.0727 0.1402,-0.1038 0.2233,-0.0762 l 1.3741,0.458 c 0.1591,0.0531 0.3256,0.0801 0.4932,0.0802 h 1.2952 c 0.027,-2e-4 0.0488,-0.0222 0.0486,-0.0492 -10e-5,-0.0182 -0.0103,-0.0349 -0.0266,-0.0432 L 12.0369,16.496 C 11.9084,16.4319 11.8002,16.3335 11.7242,16.2118 L 10.9375,14.953 C 10.891,14.8785 10.8709,14.7905 10.8807,14.7032 l 0.146,-1.3149 c 0.0219,-0.1984 -0.0175,-0.3987 -0.113,-0.574 L 9.9182,10.9893 C 9.89993,10.9559 9.87846,10.9242 9.85407,10.8949 L 9.49584,10.465 C 9.42796,10.3838 9.43746,10.2631 9.51722,10.1935 L 10.6414,9.20985 c 0.0171,-0.01508 0.0424,-0.01624 0.0607,-0.00277 l 1.9517,1.41942 c 0.022,0.0157 0.0525,0.0106 0.0682,-0.0114 0.0104,-0.0146 0.0119,-0.0338 0.004,-0.0499 l -0.6903,-1.38187 2.3398,0.29688 1.6823,1.04379 c 0.0472,0.0295 0.1002,0.0484 0.1553,0.0554 l 0.3959,0.0517 c 0.0268,0.0028 0.0509,-0.0166 0.0537,-0.0434 0.0016,-0.0148 -0.0036,-0.0295 -0.0141,-0.0399 L 15.3979,9.33138 C 15.3782,9.31307 15.3771,9.28227 15.3954,9.26256 15.3993,9.25832 15.404,9.25482 15.4092,9.25221 L 16.699,8.57553 C 16.709,8.57037 16.7168,8.5619 16.7212,8.55158 L 16.869,8.2076 C 16.8789,8.18261 16.8667,8.15431 16.8417,8.14443 16.8322,8.14067 16.8217,8.14 16.8118,8.14249 Z"
             fill="#e7e1df"
             transform="matrix(1.10526,0,0,1,427,253)"
             id="path226" />
        </g>
      </g>
    </g>
    <g
       clip-path="url(#clipPath715)"
       id="g240"
       transform="matrix(0.26458333,0,0,0.26458333,7.5504152,9.9445508)"
       style="opacity:1">
      <g
         clip-path="url(#clip8)"
         id="g238">
        <g
           clip-path="url(#clip9)"
           id="g236">
          <path
             d="M 13.1667,12.6667 10.1667,8 12,8.5 9.83333,5.16667 11.1667,5.33333 8,0.666667 4.83333,5.33333 6.16667,5.16667 4,8.5 5.83333,8 l -3,4.6667 4.5,-0.8334 v 3.5 h 1.33334 v -3.5 z"
             fill="#e7e1df"
             transform="matrix(1.125,0,0,1,451,262)"
             id="path234" />
        </g>
      </g>
    </g>
    <path
       d="m 76.209789,91.480402 c 0,-0.243681 0.197379,-0.441061 0.441061,-0.441061 h 2.645833 l 1.355196,-1.010179 -0.03228,1.010179 h 0.440796 c 0.243681,0 0.44106,0.19738 0.44106,0.441061 v 0 0 0.661458 1.102254 c 0,0.243682 -0.197379,0.441061 -0.44106,0.441061 H 80.6196 79.296683 v 0 H 76.65085 c -0.243682,0 -0.441061,-0.197379 -0.441061,-0.441061 V 92.14186 Z"
       stroke="#37474f"
       stroke-width="0.352777"
       stroke-miterlimit="8"
       fill="#ffffff"
       fill-rule="evenodd"
       id="path242"
       clip-path="url(#clipPath709)"
       style="opacity:1" />
    <text
       fill="#37474f"
       font-family="Calibri, Calibri_MSFontService, sans-serif"
       font-weight="400"
       font-size="1.32292px"
       id="text244"
       x="77.031586"
       y="92.759132"
       style="stroke-width:0.264583;opacity:1">Baum</text>
    <g
       clip-path="url(#clipPath703)"
       id="g258"
       transform="matrix(0.26458333,0,0,0.26458333,7.5504152,9.9445508)"
       style="opacity:1">
      <g
         clip-path="url(#clip11)"
         id="g256">
        <g
           clip-path="url(#clip12)"
           id="g254">
          <path
             d="m 13.8421,31.6808 -1.25,-2.1775 v -0.0904 c 0.1368,-3.0114 -2.1936,-5.5636 -5.20498,-5.7004 -3.01145,-0.1368 -5.56363,2.1935 -5.70045,5.205 -0.0075,0.165 -0.0075,0.3303 0,0.4954 -0.00727,1.7165 0.78311,3.3389 2.13916,4.3913 v 4.5904 H 9.56 v -2.1771 h 0.8892 c 1.1826,-1e-4 2.1412,-0.9588 2.1411,-2.1414 0,-0.0115 -10e-5,-0.0229 -3e-4,-0.0344 v -1.0905 h 0.7983 c 0.4721,-0.0545 0.8892,-0.5987 0.4538,-1.2704 z"
             fill="#e7e1df"
             transform="matrix(1.075,0,0,1,351,159)"
             id="path246" />
          <path
             d="m 15.445,25.8721 c 0,0.6337 -0.5138,1.1475 -1.1475,1.1475 -0.6337,0 -1.1475,-0.5138 -1.1475,-1.1475 0,-0.6338 0.5138,-1.1475 1.1475,-1.1475 0.6337,0 1.1475,0.5137 1.1475,1.1475 z"
             fill="#e7e1df"
             transform="matrix(1.075,0,0,1,351,159)"
             id="path248" />
          <path
             d="m 19.9037,23.6225 c 0,1.103 -0.8941,1.9971 -1.997,1.9971 -1.103,0 -1.9971,-0.8941 -1.9971,-1.9971 0,-1.103 0.8941,-1.9971 1.9971,-1.9971 1.1029,0 1.997,0.8941 1.997,1.9971 z"
             fill="#e7e1df"
             transform="matrix(1.075,0,0,1,351,159)"
             id="path250" />
          <path
             d="M 34.1292,8.48375 C 33.8352,8.48421 33.5425,8.52246 33.2583,8.5975 33.3358,8.31362 33.3741,8.0205 33.3721,7.72625 33.3657,5.63671 31.6729,3.94466 29.5833,3.93917 28.735,3.94171 27.9106,4.221 27.2354,4.73458 26.905,2.94819 25.3417,1.65555 23.525,1.66667 21.8032,1.68597 20.3034,2.8456 19.8512,4.50708 19.158,3.44537 17.9763,2.80463 16.7083,2.80292 14.6192,2.80887 12.927,4.50087 12.9208,6.59 c 5e-4,0.29408 0.0387,0.58692 0.1138,0.87125 -0.2844,-0.07504 -0.5772,-0.11329 -0.8713,-0.11375 -2.0916,0.02196 -3.76947,1.73533 -3.74755,3.827 0.02163,2.0607 1.68685,3.726 3.74755,3.7476 h 0.038 c 0.1953,2.0688 2.0307,3.5875 4.0994,3.3922 0.7143,-0.0675 1.3944,-0.3377 1.9601,-0.7789 0,0.1138 -0.0379,0.265 -0.0379,0.4167 0.003,2.0961 1.7047,3.7929 3.8009,3.7899 1.9599,-0.0028 3.5953,-1.4974 3.7741,-3.4491 0.6991,0.9774 1.8279,1.5561 3.0296,1.5529 2.0892,-0.0061 3.7813,-1.6983 3.7875,-3.7875 v -0.3408 c 0.4779,0.2109 0.9924,0.3267 1.5146,0.3408 2.0916,0.022 3.8051,-1.6559 3.827,-3.7476 0.0219,-2.0916 -1.6559,-3.80499 -3.7476,-3.82695 -0.0265,-2.9e-4 -0.0529,-2.9e-4 -0.0794,0 z"
             fill="#e7e1df"
             transform="matrix(1.075,0,0,1,351,159)"
             id="path252" />
        </g>
      </g>
    </g>
    <g
       clip-path="url(#clipPath697)"
       id="g266"
       transform="matrix(0.26458333,0,0,0.26458333,7.5504152,9.9445508)"
       style="opacity:1">
      <g
         clip-path="url(#clip14)"
         id="g264">
        <g
           clip-path="url(#clip15)"
           id="g262">
          <path
             d="M 11.0771,4.44167 C 10.9146,3.9 10.5625,3.43958 10.075,3.15521 c 0,-0.04063 0,-0.08125 0,-0.12188 C 10.0885,2.1125 9.33021,1.35417 8.39583,1.35417 8.11146,1.35417 7.85417,1.42188 7.62396,1.54375 7.3125,1.09688 6.81146,0.8125 6.22917,0.8125 5.48438,0.8125 4.84792,1.3 4.61771,1.97708 4.37396,1.84167 4.08958,1.76042 3.79167,1.76042 c -0.93438,0 -1.69271,0.75833 -1.69271,1.69271 0,0.35208 0.10833,0.67708 0.29792,0.94791 -0.88021,0.23021 -1.516672,1.01563 -1.516672,1.96354 0,1.12396 0.907292,2.03125 2.031252,2.03125 0.1625,0 0.325,-0.02708 0.4875,-0.05416 0.65,0.29791 2.08542,1.16458 2.15312,2.15313 l -0.05416,1.2864 c 0,0.0678 -0.02709,0.1355 -0.08125,0.1896 l -0.12188,0.1219 c -0.08125,0.0948 -0.02708,0.2302 0.09479,0.2302 h 1.48959 c 0.10833,0 0.1625,-0.1083 0.12187,-0.2031 0,0 -0.06771,-0.1354 -0.10833,-0.176 C 6.85208,11.8896 6.81146,11.8354 6.81146,11.7542 L 6.75729,10.1156 c 0,-0.0135 0.01354,-0.0271 0.01354,-0.0271 C 6.87917,9.60104 7.52917,9.27604 8.21979,8.9375 8.91042,8.59896 9.72292,8.19271 9.98021,7.48854 c 0.16249,0.05417 0.33859,0.09479 0.52809,0.09479 0.8938,0 1.625,-0.73125 1.625,-1.625 C 12.1198,5.26771 11.6865,4.67188 11.0771,4.44167 Z M 6.20208,8.57188 C 6.16146,8.23333 6.08021,7.82708 5.91771,7.43438 6.25625,7.39375 6.56771,7.28542 6.83854,7.12292 6.55417,7.61042 6.3375,8.13854 6.20208,8.57188 Z M 4.15729,7.9625 C 4.40104,7.77292 4.60417,7.51563 4.75313,7.23125 4.875,7.28542 4.99688,7.33958 5.13229,7.36667 5.48438,7.94896 5.55208,8.6125 5.55208,9.03229 5.11875,8.57188 4.56354,8.20625 4.15729,7.9625 Z M 7.90833,8.32812 C 7.51563,8.51771 7.10938,8.72083 6.78438,8.96458 6.96042,8.40938 7.27188,7.56979 7.75938,6.96042 8.09792,7.17708 8.50417,7.29896 8.9375,7.29896 9.07292,7.29896 9.19479,7.28542 9.31667,7.25833 9.16771,7.67813 8.63958,7.9625 7.90833,8.32812 Z"
             stroke="#37474f"
             stroke-width="0.135417"
             fill="#37474f"
             transform="matrix(1.07692,0,0,1,369,164)"
             id="path260" />
        </g>
      </g>
    </g>
    <path
       d="m 99.895289,88.86235 2.289971,-15.837429 10.67726,11.918685 z"
       stroke="#506874"
       stroke-width="0.352777"
       stroke-miterlimit="8"
       fill="#506874"
       fill-rule="evenodd"
       id="path268"
       clip-path="url(#clipPath691)"
       style="opacity:1" />
    <path
       d="M 91.302681,84.941754 101.87966,73.154831 99.613243,88.828483 Z"
       stroke="#5c7886"
       stroke-width="0.352777"
       stroke-miterlimit="8"
       fill="#37474f"
       fill-rule="evenodd"
       id="path270"
       clip-path="url(#clipPath685)"
       style="opacity:1" />
    <path
       d="m 88.645206,103.21017 c 0,-0.73051 0.592402,-1.32291 1.322916,-1.32291 h 24.341668 c 0.73051,0 1.32292,0.5924 1.32292,1.32291 v 5.29167 c 0,0.73052 -0.59241,1.32292 -1.32292,1.32292 H 89.968122 c -0.730514,0 -1.322916,-0.5924 -1.322916,-1.32292 z"
       stroke="#37474f"
       stroke-width="0.352777"
       stroke-miterlimit="8"
       fill="#ffffff"
       fill-rule="evenodd"
       id="path272"
       clip-path="url(#clipPath679)"
       transform="translate(0.02889068,0.2826207)"
       style="opacity:1" />
    <path
       d="m 88.777498,99.902883 c 0,-1.315244 2.309812,-2.38125 5.159374,-2.38125 2.849563,0 5.159375,1.066006 5.159375,2.38125 0,1.315247 -2.309812,2.381247 -5.159375,2.381247 -2.849562,0 -5.159374,-1.066 -5.159374,-2.381247 z"
       stroke="#e7e1df"
       stroke-width="1.05833"
       stroke-miterlimit="8"
       fill="#ffffff"
       fill-rule="evenodd"
       id="path278"
       clip-path="url(#clipPath673)"
       style="opacity:1" />
    <text
       fill="#37474f"
       font-family="Calibri, Calibri_MSFontService, sans-serif"
       font-weight="700"
       font-size="1.85208px"
       id="text280"
       x="90.466866"
       y="100.43205"
       style="stroke-width:0.264583;opacity:1">Definition</text>
    <path
       d="m 69.066039,86.188735 c 0,-0.243681 0.19738,-0.44106 0.441061,-0.44106 h 2.645833 v 0 h 1.322917 0.440796 c 0.243681,0 0.44106,0.197379 0.44106,0.44106 v 1.102254 l 0.908579,0.07964 -0.908579,0.581819 v 0 c 0,0.243681 -0.197379,0.44106 -0.44106,0.44106 H 73.47585 72.152933 v 0 H 69.5071 c -0.243681,0 -0.441061,-0.197379 -0.441061,-0.44106 v 0 -0.661459 0 z"
       stroke="#37474f"
       stroke-width="0.352777"
       stroke-miterlimit="8"
       fill="#ffffff"
       fill-rule="evenodd"
       id="path282"
       clip-path="url(#clipPath667)"
       style="opacity:1" />
    <text
       fill="#37474f"
       font-family="Calibri, Calibri_MSFontService, sans-serif"
       font-weight="400"
       font-size="1.32292px"
       id="text284"
       x="70.211159"
       y="87.467468"
       style="stroke-width:0.264583;opacity:1">tree</text>
    <path
       d="m 75.680623,79.838735 c 0,-0.243681 0.197379,-0.44106 0.44106,-0.44106 H 78.613 v 0 h 1.256771 0.396875 c 0.243681,0 0.44106,0.197379 0.44106,0.44106 v 1.102254 0 0.661459 0 c 0,0.243681 -0.197379,0.44106 -0.44106,0.44106 h -0.396875 l 0.03069,0.903817 L 78.613,82.043508 h -2.491317 c -0.243681,0 -0.44106,-0.197379 -0.44106,-0.44106 v 0 -0.661459 0 z"
       stroke="#37474f"
       stroke-width="0.352777"
       stroke-miterlimit="8"
       fill="#ffffff"
       fill-rule="evenodd"
       id="path286"
       clip-path="url(#clipPath661)"
       style="opacity:1" />
    <text
       fill="#37474f"
       font-family="Calibri, Calibri_MSFontService, sans-serif"
       font-weight="400"
       font-size="1.32292px"
       id="text288"
       x="76.806686"
       y="81.11747"
       style="stroke-width:0.264583;opacity:1">träd</text>
    <path
       d="m 118.41083,85.615383 c 0,-1.315244 2.30981,-2.38125 5.15938,-2.38125 2.84956,0 5.15937,1.066006 5.15937,2.38125 0,1.315244 -2.30981,2.38125 -5.15937,2.38125 -2.84957,0 -5.15938,-1.066006 -5.15938,-2.38125 z"
       stroke="#e7e1df"
       stroke-width="1.05833"
       stroke-miterlimit="8"
       fill="#ffffff"
       fill-rule="evenodd"
       id="path290"
       clip-path="url(#clipPath655)"
       style="opacity:1" />
    <text
       fill="#37474f"
       font-family="Calibri, Calibri_MSFontService, sans-serif"
       font-weight="700"
       font-size="1.85208px"
       id="text292"
       x="119.68692"
       y="86.144547"
       style="stroke-width:0.264583;opacity:1">Referenter</text>
    <path
       d="m 97.244164,65.771633 c 0,-1.315243 2.25081,-2.38125 5.027086,-2.38125 2.77627,0 5.02708,1.066007 5.02708,2.38125 0,1.315244 -2.25081,2.38125 -5.02708,2.38125 -2.776276,0 -5.027086,-1.066006 -5.027086,-2.38125 z"
       stroke="#e7e1df"
       stroke-width="1.05833"
       stroke-miterlimit="8"
       fill="#ffffff"
       fill-rule="evenodd"
       id="path294"
       clip-path="url(#clipPath649)"
       style="opacity:1" />
    <text
       fill="#37474f"
       font-family="Calibri, Calibri_MSFontService, sans-serif"
       font-weight="700"
       font-size="1.85208px"
       id="text296"
       x="99.132759"
       y="66.565384"
       style="stroke-width:0.264583;opacity:1">Begrepp</text>
    <path
       d="m 102.41862,69.68244 -0.0151,-1.397265"
       stroke="#e7e1df"
       stroke-width="0.79375"
       stroke-miterlimit="8"
       fill="none"
       fill-rule="evenodd"
       id="path298"
       clip-path="url(#clipPath643)"
       style="opacity:1" />
    <path
       d="m 113.51604,84.953925 4.6863,0.605367"
       stroke="#e7e1df"
       stroke-width="0.79375"
       stroke-miterlimit="8"
       fill="none"
       fill-rule="evenodd"
       id="path300"
       clip-path="url(#clipPath637)"
       style="opacity:1" />
    <path
       d="m 75.548331,86.409133 c 0,-1.315244 2.309812,-2.38125 5.159375,-2.38125 2.849562,0 5.159375,1.066006 5.159375,2.38125 0,1.315244 -2.309813,2.38125 -5.159375,2.38125 -2.849563,0 -5.159375,-1.066006 -5.159375,-2.38125 z"
       stroke="#e7e1df"
       stroke-width="1.05833"
       stroke-miterlimit="8"
       fill="#ffffff"
       fill-rule="evenodd"
       id="path302"
       clip-path="url(#clipPath631)"
       style="opacity:1" />
    <text
       fill="#37474f"
       font-family="Calibri, Calibri_MSFontService, sans-serif"
       font-weight="700"
       font-size="1.85208px"
       id="text304"
       x="78.134102"
       y="86.938301"
       style="stroke-width:0.264583;opacity:1">Termer</text>
    <path
       d="m 86.263956,86.149312 5.182738,-0.666083"
       stroke="#e7e1df"
       stroke-width="0.79375"
       stroke-miterlimit="8"
       fill="none"
       fill-rule="evenodd"
       id="path306"
       clip-path="url(#clipPath625)"
       style="opacity:1" />
    <text
       xml:space="preserve"
       transform="matrix(0.26458333,0,0,0.26458333,-51.410846,-0.18198529)"
       id="text815"
       style="font-weight:bold;font-size:6.66667px;font-family:Calibri;-inkscape-font-specification:'Calibri Bold';white-space:pre;shape-inside:url(#rect817);display:inline;opacity:1;fill:#000000;fill-opacity:1;stroke:#000000;stroke-width:1.88976;stroke-opacity:0"
       x="174.44995"
       y="0"><tspan
         x="514.14059"
         y="167.47005"
         id="tspan6713"><tspan
           style="font-weight:normal;-inkscape-font-specification:Calibri;text-align:center;text-anchor:middle"
           id="tspan6711">När vi bildar en tanke av något så utgörs den tanken av en </tspan></tspan><tspan
         x="524.61423"
         y="175.8034"
         id="tspan6721"><tspan
           style="font-weight:normal;-inkscape-font-specification:Calibri;text-align:center;text-anchor:middle"
           id="tspan6715">kunskapsenhet som representeras av ett </tspan><tspan
           style="text-align:center;text-anchor:middle"
           id="tspan6717">begrepp</tspan><tspan
           style="font-weight:normal;-inkscape-font-specification:Calibri;text-align:center;text-anchor:middle"
           id="tspan6719">. </tspan></tspan><tspan
         x="504.86487"
         y="184.13674"
         id="tspan6733"><tspan
           style="font-weight:normal;-inkscape-font-specification:Calibri;text-align:center;text-anchor:middle"
           id="tspan6723">Kunskapsenheten kan uttryckas som en </tspan><tspan
           style="text-align:center;text-anchor:middle"
           id="tspan6725">term</tspan><tspan
           style="font-weight:normal;-inkscape-font-specification:Calibri;text-align:center;text-anchor:middle"
           id="tspan6727">, en </tspan><tspan
           style="text-align:center;text-anchor:middle"
           id="tspan6729">referent</tspan><tspan
           style="font-weight:normal;-inkscape-font-specification:Calibri;text-align:center;text-anchor:middle"
           id="tspan6731"> och en </tspan></tspan><tspan
         x="577.94107"
         y="192.47009"
         id="tspan6739"><tspan
           style="text-align:center;text-anchor:middle"
           id="tspan6735">definition</tspan><tspan
           style="font-weight:normal;-inkscape-font-specification:Calibri;text-align:center;text-anchor:middle"
           id="tspan6737">.</tspan></tspan></text>
    <text
       xml:space="preserve"
       transform="matrix(0.26458333,0,0,0.26458333,0.81893343,39.035846)"
       id="text1055"
       style="font-weight:bold;font-size:6.66667px;font-family:Calibri;-inkscape-font-specification:'Calibri Bold';text-align:center;white-space:pre;shape-inside:url(#rect1057);display:inline;opacity:1;fill:#000000;fill-opacity:1;stroke:#000000;stroke-width:1.88976;stroke-opacity:0"
       x="174.44995"
       y="0"><tspan
         x="501.07617"
         y="167.47005"
         id="tspan6749"><tspan
           style="text-align:start;text-anchor:start"
           id="tspan6741">I den verkliga världen</tspan><tspan
           style="font-weight:normal;-inkscape-font-specification:Calibri;text-align:start;text-anchor:start"
           id="tspan6743"> finns </tspan><tspan
           style="text-align:start;text-anchor:start"
           id="tspan6745">referenter</tspan><tspan
           style="font-weight:normal;-inkscape-font-specification:Calibri;text-align:start;text-anchor:start"
           id="tspan6747">, företeelser 
</tspan></tspan><tspan
         x="501.07617"
         y="175.8034"
         id="tspan6753"><tspan
           style="font-weight:normal;-inkscape-font-specification:Calibri;text-align:start;text-anchor:start"
           id="tspan6751">i verkligheten, abstrakta och konkreta.</tspan></tspan></text>
    <text
       xml:space="preserve"
       transform="matrix(0.26458333,0,0,0.26458333,-98.363052,54.231617)"
       id="text3141"
       style="font-weight:bold;font-size:6.66667px;font-family:Calibri;-inkscape-font-specification:'Calibri Bold';white-space:pre;shape-inside:url(#rect3143);display:inline;opacity:1;fill:#000000;fill-opacity:1;stroke:#000000;stroke-width:1.88976;stroke-opacity:0"
       x="174.44995"
       y="0"><tspan
         x="502.89254"
         y="167.47005"
         id="tspan6759">I den språkliga världen<tspan
   style="font-weight:normal;-inkscape-font-specification:Calibri;text-align:center;text-anchor:middle"
   id="tspan6755"> finns </tspan>termer<tspan
   style="font-weight:normal;-inkscape-font-specification:Calibri;text-align:center;text-anchor:middle"
   id="tspan6757"> som vi använder när
</tspan></tspan><tspan
         x="507.34079"
         y="175.8034"
         id="tspan6765"><tspan
   style="font-weight:normal;-inkscape-font-specification:Calibri;text-align:center;text-anchor:middle"
   id="tspan6761">vi kommunicerar om begreppen och </tspan>definitioner<tspan
   style="font-weight:normal;-inkscape-font-specification:Calibri;text-align:center;text-anchor:middle"
   id="tspan6763"> som
</tspan></tspan><tspan
         x="551.11848"
         y="184.13674"
         id="tspan6769"><tspan
           style="font-weight:normal;-inkscape-font-specification:Calibri;text-align:center;text-anchor:middle"
           id="tspan6767">beskriver begreppen.</tspan></tspan></text>
    <text
       xml:space="preserve"
       transform="matrix(0.26458333,0,0,0.26458333,-42.948529,61.147058)"
       id="text3885"
       style="font-weight:bold;font-size:6.66667px;font-family:Calibri;-inkscape-font-specification:'Calibri Bold';white-space:pre;shape-inside:url(#rect3887);display:inline;opacity:1;fill:#000000;fill-opacity:1;stroke:#000000;stroke-width:1.88976;stroke-opacity:0"
       x="174.44995"
       y="0"><tspan
         x="502.97654"
         y="167.47005"
         id="tspan6773"><tspan
           style="font-weight:normal;-inkscape-font-specification:Calibri;text-align:center;text-anchor:middle"
           id="tspan6771">Högvuxen icke klättrande vedväxt </tspan></tspan><tspan
         x="506.20408"
         y="175.8034"
         id="tspan6777"><tspan
           style="font-weight:normal;-inkscape-font-specification:Calibri;text-align:center;text-anchor:middle"
           id="tspan6775">med genomgående huvudstam</tspan></tspan></text>
  </g>
</svg>
